# xmcd
#
# Track frame offsets: 
#        150
#        24265
#        40632
#        66752
#        93717
#        130780
#        156145
#        181947
#        209697
#        240520
#        268180
#        299367
#        327330
#
# Disc length: 4727 seconds
#
# Revision: 7
# Processed by: cddbd v1.5.2PL0 Copyright (c) Steve Scherf et al.
# Submitted via: ExactAudioCopyFreeDBPlugin 1.0
#
DISCID=b912750d
DTITLE=Various Artist - The Funk Box [box set]
DYEAR=2000
DGENRE=Funk
TTITLE0=The Isley Brothers - Fight The Power - Pts. 1 and 2
TTITLE1=Graham Central Station - The Jam
TTITLE2=Parliament - Give Up the Funk (Tear the Roof Off the Sucker)
TTITLE3=Brothers Johnson - Get the Funk Out Ma Face
TTITLE4=Brass Construction - Changin'
TTITLE5=Brick - Dazz
TTITLE6=Johnny Guitar Watson - Superman Lover
TTITLE7=Bootsy's Rubber Band - The Pinocchio Theory
TTITLE8=Slave - Slide
TTITLE9=Patrice Rushen - The Hump
TTITLE10=Roy Ayers - Running Away (12" mix)
TTITLE11=The Commodores - Brick House (12" mix)
TTITLE12=Bar-Kays - Let's Have Some Fun
EXTD=
EXTT0=
EXTT1=
EXTT2=
EXTT3=
EXTT4=
EXTT5=
EXTT6=
EXTT7=
EXTT8=
EXTT9=
EXTT10=
EXTT11=
EXTT12=
PLAYORDER=
